<svg width="300" height="300" viewBox="0 0 300 300" fill="none" xmlns="http://www.w3.org/2000/svg">
<g clip-path="url(#clip0_326_13451)">
<path d="M262.505 110.129L270.533 117.645L115.412 262.672L107.384 255.156L262.505 110.129Z" fill="#2D2D2D"/>
<path d="M268.789 131.903L56.8697 78.8131L59.8132 68.5421L271.732 121.632L268.789 131.903Z" fill="#2D2D2D"/>
<path d="M176.652 41.2986L266.248 125.069L258.21 132.575L168.614 48.8047L176.652 41.2986ZM41.8297 167.369L131.437 251.134L123.399 258.64L33.8025 174.869L41.8297 167.369Z" fill="#2D2D2D"/>
<path d="M234.377 215.64L237.324 225.898L114.832 256.553L111.885 246.295L234.377 215.64Z" fill="#2D2D2D"/>
<path d="M73.8696 62.8729L130.663 261.006L119.691 263.762L62.8979 65.6284L73.8696 62.8729ZM231.191 231.668L220.205 228.916L253.001 114.482L263.986 117.234L231.191 231.668ZM46.9947 185.523L36.0092 182.771L68.8047 68.3371L79.7902 71.0892L46.9947 185.523Z" fill="#2D2D2D"/>
<path d="M177.27 46.1189L179.837 55.0875L73.3821 81.7552L70.8151 72.7866L177.27 46.1189Z" fill="#2D2D2D"/>
<path d="M55.2103 61.3475C59.6994 57.1611 65.7802 54.8088 72.1206 54.8059C78.4611 54.803 84.5443 57.1497 89.0377 61.332C93.5154 65.5292 96.0313 71.2144 96.0344 77.1425C96.0375 83.0705 93.5275 88.7581 89.0542 92.9593C84.5652 97.1457 78.4844 99.498 72.144 99.5008C65.8035 99.5037 59.7203 97.157 55.2269 92.9747C45.8313 84.1907 45.8338 70.0674 55.219 61.3497M211.012 207.053C215.502 202.867 221.582 200.514 227.923 200.512C234.263 200.509 240.346 202.855 244.84 207.038C249.32 211.235 251.837 216.923 251.84 222.853C251.842 228.783 249.33 234.472 244.854 238.673C240.365 242.859 234.284 245.212 227.944 245.215C221.603 245.217 215.52 242.871 211.027 238.688C206.549 234.491 204.033 228.806 204.03 222.878C204.027 216.95 206.539 211.254 211.012 207.053ZM279.497 117.536C281.124 123.266 280.256 129.364 277.083 134.497C273.91 139.629 268.691 143.377 262.569 144.918C256.44 146.44 249.917 145.628 244.428 142.662C238.938 139.695 234.93 134.815 233.281 129.091C231.654 123.362 232.522 117.263 235.695 112.13C238.868 106.998 244.087 103.251 250.209 101.709C263.025 98.5587 276.12 105.612 279.497 117.536ZM66.6494 170.878C68.2766 176.608 67.4087 182.707 64.2358 187.839C61.0629 192.972 55.8437 196.719 49.7214 198.261C43.5933 199.782 37.0701 198.971 31.5807 196.004C26.0913 193.038 22.0831 188.158 20.4343 182.434C18.8071 176.704 19.675 170.605 22.8479 165.473C26.0208 160.34 31.24 156.593 37.3623 155.051C43.4904 153.53 50.0136 154.341 55.503 157.308C60.9924 160.275 65.0006 165.154 66.6494 170.878ZM184.709 28.8819C189.277 30.0263 193.379 32.4115 196.497 35.7358C199.615 39.0601 201.609 43.1743 202.225 47.5579C202.842 51.9416 202.055 56.3978 199.963 60.3629C197.87 64.3281 194.567 67.6241 190.472 69.8341C186.376 72.0441 181.671 73.0688 176.952 72.7786C172.233 72.4884 167.713 70.8963 163.962 68.2038C160.211 65.5112 157.398 61.8391 155.879 57.6518C154.361 53.4646 154.204 48.9503 155.43 44.68C157.086 38.9629 161.095 34.0914 166.582 31.1309C172.069 28.1703 178.586 27.3618 184.709 28.8819ZM127.662 227.938C130.697 228.694 133.543 230.002 136.036 231.788C138.53 233.574 140.622 235.803 142.192 238.346C143.763 240.889 144.781 243.697 145.188 246.609C145.596 249.521 145.385 252.48 144.568 255.315C142.927 261.04 138.921 265.922 133.43 268.886C127.94 271.849 121.415 272.652 115.292 271.118C109.168 269.584 103.947 265.838 100.777 260.705C97.6072 255.572 96.7482 249.472 98.389 243.746C99.1981 240.91 100.598 238.251 102.508 235.921C104.417 233.592 106.8 231.637 109.519 230.169C112.238 228.702 115.239 227.75 118.352 227.368C121.465 226.987 124.63 227.175 127.662 227.938Z" fill="#2D2D2D"/>
</g>
<defs>
<clipPath id="clip0_326_13451">
<rect width="300" height="300" fill="white" transform="translate(300 300) rotate(180)"/>
</clipPath>
</defs>
</svg>
