<svg width="408" height="339" viewBox="0 0 408 339" fill="none" xmlns="http://www.w3.org/2000/svg">
<g clip-path="url(#clip0_82_209641)">
<path d="M79.0834 218.313L60.4524 210.721L206.82 -149.126L225.451 -141.535L79.0834 218.313Z" fill="#EEEEEE"/>
<path d="M52.8047 184.637L437.667 131.459L440.423 151.409L55.5613 204.587L52.8047 184.637Z" fill="#EEEEEE"/>
<path d="M269.829 279.355L61.9786 194.813L69.5699 176.182L277.42 260.724L269.829 279.355ZM397.027 -33.4412L189.164 -117.965L196.755 -136.596L404.605 -52.0544L397.027 -33.4412Z" fill="#EEEEEE"/>
<path d="M47.3214 14.8163L34.9623 -1.05808L212.268 -138.85L224.627 -122.976L47.3214 14.8163Z" fill="#EEEEEE"/>
<path d="M421.66 170.977L183.161 -135.723L199.036 -148.082L437.535 158.618L421.66 170.977ZM40.7241 -15.3444L60.6746 -18.1011L91.3877 204.177L71.4373 206.934L40.7241 -15.3444ZM375.239 -61.5659L395.19 -64.3225L425.903 157.956L405.952 160.712L375.239 -61.5659Z" fill="#EEEEEE"/>
<path d="M265.273 271.37L254.483 257.485L408.557 137.688L419.347 151.573L265.273 271.37Z" fill="#EEEEEE"/>
<path d="M453.228 160.797C448.985 171.192 440.794 179.481 430.451 183.85C420.107 188.218 408.454 188.309 398.044 184.102C387.649 179.858 379.359 171.668 374.991 161.324C370.623 150.981 370.532 139.327 374.739 128.917C378.982 118.522 387.173 110.232 397.516 105.864C407.86 101.496 419.513 101.405 429.923 105.612C451.719 114.476 462.11 139.126 453.213 160.799M91.7654 13.7256C87.5219 24.1208 79.3313 32.4105 68.9878 36.7787C58.6443 41.1469 46.9911 41.2375 36.5809 37.0307C26.1814 32.7877 17.8883 24.5947 13.5193 14.2474C9.15039 3.90017 9.06201 -7.75717 13.2736 -18.1695C17.5171 -28.5647 25.7077 -36.8544 36.0512 -41.2226C46.3947 -45.5908 58.0479 -45.6814 68.4581 -41.4746C78.8534 -37.2311 87.143 -29.0405 91.5112 -18.697C95.8794 -8.35347 95.9722 3.31537 91.7654 13.7256ZM45.9066 217.078C39.0345 208.199 35.9617 196.958 37.3614 185.817C38.7611 174.677 44.5191 164.545 53.3741 157.642C62.2535 150.769 73.4946 147.697 84.6351 149.096C95.7756 150.496 105.907 156.254 112.811 165.109C119.683 173.988 122.756 185.229 121.356 196.37C119.956 207.51 114.198 217.642 105.343 224.545C86.7503 238.863 60.1929 235.563 45.9066 217.078ZM353.947 -22.4852C347.075 -31.3646 344.002 -42.6057 345.401 -53.7461C346.801 -64.8866 352.559 -75.0183 361.414 -81.9217C370.294 -88.7938 381.535 -91.8666 392.675 -90.467C403.816 -89.0673 413.947 -83.3093 420.851 -74.4542C427.723 -65.5749 430.796 -54.3337 429.396 -43.1933C427.996 -32.0528 422.238 -21.9212 413.383 -15.0177C404.504 -8.1456 393.263 -5.07282 382.122 -6.47248C370.982 -7.87215 360.85 -13.6301 353.947 -22.4852ZM265.821 306.57C257.526 307.716 249.077 306.376 241.542 302.72C234.008 299.064 227.727 293.256 223.495 286.03C219.262 278.804 217.267 270.485 217.762 262.125C218.257 253.766 221.221 245.741 226.277 239.065C231.334 232.39 238.257 227.364 246.17 224.623C254.083 221.882 262.631 221.55 270.734 223.668C278.836 225.786 286.128 230.259 291.688 236.521C297.247 242.784 300.825 250.554 301.968 258.85C303.475 269.967 300.518 281.228 293.744 290.171C286.97 299.113 276.931 305.009 265.821 306.57ZM212.396 -80.0802C206.887 -79.3106 201.281 -79.6357 195.898 -81.0369C190.515 -82.438 185.461 -84.8877 181.027 -88.2454C176.593 -91.6032 172.864 -95.8031 170.056 -100.604C167.248 -105.406 165.414 -110.714 164.661 -116.225C163.125 -127.346 166.069 -138.622 172.846 -147.572C179.623 -156.523 189.678 -162.414 200.799 -163.951C211.92 -165.488 223.196 -162.544 232.147 -155.766C241.097 -148.989 246.989 -138.934 248.525 -127.813C249.293 -122.306 248.966 -116.703 247.564 -111.323C246.163 -105.943 243.714 -100.892 240.358 -96.4595C237.002 -92.0271 232.804 -88.3003 228.006 -85.4924C223.207 -82.6845 217.904 -80.835 212.396 -80.0802Z" fill="#EEEEEE"/>
</g>
<defs>
<clipPath id="clip0_82_209641">
<path d="M0 0H403C405.761 0 408 2.23858 408 5V339H0V0Z" fill="white"/>
</clipPath>
</defs>
</svg>
