<svg width="40" height="40" viewBox="0 0 40 40" fill="none" xmlns="http://www.w3.org/2000/svg">
<rect width="40" height="40" rx="5" fill="#FFF42C"/>
<g clip-path="url(#clip0_104_18365)">
<path d="M14.2349 10.372C12.6093 10.3398 10.7316 10.7761 8.77133 11.6295C8.27497 11.8455 7.96289 12.3461 7.96289 12.8826V28.2557C7.96289 28.7522 8.48403 29.0961 8.93867 28.8855C14.4283 26.3431 18.4922 29.3584 18.6661 29.4878C18.79 29.5823 18.9377 29.6296 19.0899 29.6296C19.6288 29.6296 19.7853 29.1404 19.7853 28.9426V12.4355C19.7853 12.2119 19.6753 12.0022 19.4906 11.8732C19.4072 11.8139 17.3817 10.4283 14.2349 10.372ZM32.1901 11.6295C30.2294 10.7787 28.3444 10.3566 26.7266 10.3716C23.578 10.428 21.5934 11.8139 21.4717 11.8728C21.2848 12.0022 21.1762 12.2115 21.1762 12.4355V28.9048C21.1762 29.1309 21.3283 29.6296 21.8716 29.6296C22.023 29.6296 22.1732 29.5813 22.2967 29.4866C22.4673 29.3568 26.5319 26.3414 32.0241 28.8847C32.4788 29.0952 32.9999 28.7512 32.9999 28.2549L32.9999 12.8818C32.9595 12.3465 32.6856 11.8453 32.1901 11.6295Z" fill="black"/>
</g>
<g clip-path="url(#clip1_104_18365)">
<path d="M13.272 10.372C11.6464 10.3398 9.7687 10.7761 7.80844 11.6295C7.31208 11.8455 7 12.3461 7 12.8826V28.2557C7 28.7522 7.52114 29.0961 7.97578 28.8855C13.4654 26.3431 17.5293 29.3584 17.7032 29.4878C17.8271 29.5823 17.9748 29.6296 18.127 29.6296C18.6659 29.6296 18.8224 29.1404 18.8224 28.9426V12.4355C18.8224 12.2119 18.7124 12.0022 18.5277 11.8732C18.4443 11.8139 16.4188 10.4283 13.272 10.372ZM31.2272 11.6295C29.2665 10.7787 27.3815 10.3566 25.7637 10.3716C22.6151 10.428 20.6305 11.8139 20.5088 11.8728C20.3219 12.0022 20.2133 12.2115 20.2133 12.4355V28.9048C20.2133 29.1309 20.3654 29.6296 20.9087 29.6296C21.0601 29.6296 21.2103 29.5813 21.3338 29.4866C21.5044 29.3568 25.569 26.3414 31.0612 28.8847C31.5159 29.0952 32.037 28.7512 32.037 28.2549L32.037 12.8818C31.9966 12.3465 31.7227 11.8453 31.2272 11.6295Z" fill="black"/>
</g>
<defs>
<clipPath id="clip0_104_18365">
<rect width="12.5185" height="19.2593" fill="white" transform="translate(20.4814 10.3704)"/>
</clipPath>
<clipPath id="clip1_104_18365">
<rect width="12.5185" height="19.2593" fill="white" transform="translate(7 10.3704)"/>
</clipPath>
</defs>
</svg>
