<svg width="40" height="40" viewBox="0 0 40 40" fill="none" xmlns="http://www.w3.org/2000/svg">
<path d="M21.9273 21.9273C21.6776 22.1952 21.3765 22.4101 21.042 22.5592C20.7074 22.7083 20.3463 22.7884 19.9801 22.7949C19.6139 22.8013 19.2501 22.734 18.9106 22.5968C18.571 22.4596 18.2625 22.2555 18.0035 21.9965C17.7445 21.7375 17.5404 21.429 17.4032 21.0894C17.266 20.7499 17.1987 20.3861 17.2051 20.0199C17.2116 19.6537 17.2917 19.2926 17.4408 18.958C17.5899 18.6235 17.8048 18.3224 18.0727 18.0727M10 10L30 30M25.4 25.4C23.846 26.5845 21.9537 27.2408 20 27.2727C13.6364 27.2727 10 20 10 20C11.1308 17.8926 12.6992 16.0515 14.6 14.6L25.4 25.4ZM18.0909 12.9455C18.7167 12.799 19.3573 12.7258 20 12.7273C26.3636 12.7273 30 20 30 20C29.4482 21.0324 28.7901 22.0043 28.0364 22.9L18.0909 12.9455Z" stroke="#757575" stroke-width="1.5" stroke-linecap="round" stroke-linejoin="round"/>
</svg>
