<svg width="31" height="30" viewBox="0 0 31 30" fill="none" xmlns="http://www.w3.org/2000/svg">
<g clip-path="url(#clip0_47_24146)">
<path d="M15.5 0C6.94142 0 0 6.71625 0 15C0 21.6275 4.44075 27.25 10.6007 29.2337C11.3744 29.3725 11.625 28.9075 11.625 28.5125V25.72C7.31342 26.6275 6.41571 23.95 6.41571 23.95C5.71046 22.2162 4.69392 21.755 4.69392 21.755C3.28729 20.8237 4.80113 20.8438 4.80113 20.8438C6.35758 20.9487 7.1765 22.39 7.1765 22.39C8.55858 24.6825 10.8022 24.02 11.687 23.6362C11.8252 22.6675 12.2269 22.005 12.6713 21.6313C9.22896 21.25 5.60971 19.9637 5.60971 14.2175C5.60971 12.5787 6.2155 11.2413 7.20621 10.1912C7.04604 9.8125 6.51517 8.28625 7.35733 6.22125C7.35733 6.22125 8.65933 5.81875 11.6211 7.75875C12.8572 7.42625 14.1825 7.26 15.5 7.25375C16.8175 7.26 18.144 7.42625 19.3827 7.75875C22.342 5.81875 23.6414 6.22125 23.6414 6.22125C24.4848 8.2875 23.954 9.81375 23.7938 10.1912C24.7884 11.2413 25.389 12.58 25.389 14.2175C25.389 19.9788 21.7633 21.2475 18.312 21.6187C18.8674 22.0837 19.375 22.9963 19.375 24.3962V28.5125C19.375 28.9112 19.623 29.38 20.4096 29.2325C26.5644 27.2463 31 21.625 31 15C31 6.71625 24.0599 0 15.5 0Z" fill="black"/>
<path d="M15.5 0C6.94142 0 0 6.71625 0 15C0 21.6275 4.44075 27.25 10.6007 29.2337C11.3744 29.3725 11.625 28.9075 11.625 28.5125V25.72C7.31342 26.6275 6.41571 23.95 6.41571 23.95C5.71046 22.2162 4.69392 21.755 4.69392 21.755C3.28729 20.8237 4.80113 20.8438 4.80113 20.8438C6.35758 20.9487 7.1765 22.39 7.1765 22.39C8.55858 24.6825 10.8022 24.02 11.687 23.6362C11.8252 22.6675 12.2269 22.005 12.6713 21.6313C9.22896 21.25 5.60971 19.9637 5.60971 14.2175C5.60971 12.5787 6.2155 11.2413 7.20621 10.1912C7.04604 9.8125 6.51517 8.28625 7.35733 6.22125C7.35733 6.22125 8.65933 5.81875 11.6211 7.75875C12.8572 7.42625 14.1825 7.26 15.5 7.25375C16.8175 7.26 18.144 7.42625 19.3827 7.75875C22.342 5.81875 23.6414 6.22125 23.6414 6.22125C24.4848 8.2875 23.954 9.81375 23.7938 10.1912C24.7884 11.2413 25.389 12.58 25.389 14.2175C25.389 19.9788 21.7633 21.2475 18.312 21.6187C18.8674 22.0837 19.375 22.9963 19.375 24.3962V28.5125C19.375 28.9112 19.623 29.38 20.4096 29.2325C26.5644 27.2463 31 21.625 31 15C31 6.71625 24.0599 0 15.5 0Z" fill="black"/>
</g>
<defs>
<clipPath id="clip0_47_24146">
<rect width="31" height="30" fill="white"/>
</clipPath>
</defs>
</svg>
