<svg width="28" height="19" viewBox="0 0 28 19" fill="none" xmlns="http://www.w3.org/2000/svg">
<g filter="url(#filter0_di_296_13446)">
<g clip-path="url(#clip0_296_13446)">
<path d="M3 0H25V13H3V0Z" fill="white"/>
<path d="M3 0H25V1H3V0Z" fill="#BF0A30"/>
<path d="M3 2H25V3H3V2Z" fill="#BF0A30"/>
<path d="M3 4H25V5H3V4Z" fill="#BF0A30"/>
<path d="M3 6H25V7H3V6Z" fill="#BF0A30"/>
<path d="M3 8H25V9H3V8Z" fill="#BF0A30"/>
<path d="M3 10H25V11H3V10Z" fill="#BF0A30"/>
<path d="M3 12H25V13H3V12Z" fill="#BF0A30"/>
<path d="M3 0H14.1451V6.9987H3V0Z" fill="#002868"/>
<path d="M4.0545 0.64992L3.95307 0.373291L3.85275 0.64992H3.52394L3.79034 0.820836L3.68779 1.09746L3.95307 0.92556L4.21946 1.09746L4.11692 0.820836L4.38331 0.64992H4.0545Z" fill="white"/>
<path d="M5.90254 0.64992L5.80111 0.373291L5.69968 0.64992H5.37198L5.63726 0.820836L5.53583 1.09746L5.80111 0.92556L6.06639 1.09746L5.96496 0.820836L6.23024 0.64992H5.90254Z" fill="white"/>
<path d="M7.75058 0.64992L7.64915 0.373291L7.54772 0.64992H7.21891L7.4853 0.820836L7.38387 1.09746L7.64915 0.92556L7.91443 1.09746L7.813 0.820836L8.07828 0.64992H7.75058Z" fill="white"/>
<path d="M9.59751 0.64992L9.49608 0.373291L9.39576 0.64992H9.06695L9.33334 0.820836L9.2308 1.09746L9.49608 0.92556L9.76247 1.09746L9.65993 0.820836L9.92632 0.64992H9.59751Z" fill="white"/>
<path d="M11.508 0.820836L11.7744 0.64992H11.4455L11.3441 0.373291L11.2427 0.64992H10.915L11.1803 0.820836L11.0788 1.09746L11.3441 0.92556L11.6094 1.09746L11.508 0.820836Z" fill="white"/>
<path d="M13.356 0.820836L13.6213 0.64992H13.2936L13.1922 0.373291L13.0907 0.64992H12.7619L13.0283 0.820836L12.9269 1.09746L13.1922 0.92556L13.4574 1.09746L13.356 0.820836Z" fill="white"/>
<path d="M4.87709 1.07474L4.77566 1.35137H4.44796L4.71324 1.52229L4.61181 1.79892L4.87709 1.628L5.14237 1.79892L5.04094 1.52229L5.30733 1.35137H4.97852L4.87709 1.07474Z" fill="white"/>
<path d="M6.82656 1.35137L6.72513 1.07474L6.6237 1.35137H6.296L6.56128 1.52229L6.45985 1.79892L6.72513 1.628L6.99041 1.79892L6.88898 1.52229L7.15426 1.35137H6.82656Z" fill="white"/>
<path d="M8.67349 1.35137L8.57317 1.07474L8.47174 1.35137H8.14293L8.40932 1.52229L8.30678 1.79892L8.57317 1.628L8.83845 1.79892L8.73702 1.52229L9.0023 1.35137H8.67349Z" fill="white"/>
<path d="M10.5215 1.35137L10.4201 1.07474L10.3198 1.35137H9.99097L10.2562 1.52229L10.1548 1.79892L10.4201 1.628L10.6854 1.79892L10.5839 1.52229L10.8503 1.35137H10.5215Z" fill="white"/>
<path d="M12.3696 1.35137L12.2681 1.07474L12.1667 1.35137H11.839L12.1043 1.52229L12.0029 1.79892L12.2681 1.628L12.5334 1.79892L12.432 1.52229L12.6973 1.35137H12.3696Z" fill="white"/>
<path d="M4.0545 2.05381L3.95307 1.77619L3.85275 2.05381L3.52394 2.05282L3.79034 2.22374L3.68779 2.50135L3.95307 2.32945L4.21946 2.50135L4.11692 2.22374L4.38331 2.05282L4.0545 2.05381Z" fill="white"/>
<path d="M5.90254 2.05381L5.80111 1.77619L5.69968 2.05381L5.37198 2.05282L5.63726 2.22374L5.53583 2.50135L5.80111 2.32945L6.06639 2.50135L5.96496 2.22374L6.23024 2.05282L5.90254 2.05381Z" fill="white"/>
<path d="M7.75058 2.05381L7.64915 1.77619L7.54772 2.05381L7.21891 2.05282L7.4853 2.22374L7.38387 2.50135L7.64915 2.32945L7.91443 2.50135L7.813 2.22374L8.07828 2.05282L7.75058 2.05381Z" fill="white"/>
<path d="M9.59751 2.05381L9.49608 1.77619L9.39576 2.05381L9.06695 2.05282L9.33334 2.22374L9.2308 2.50135L9.49608 2.32945L9.76247 2.50135L9.65993 2.22374L9.92632 2.05282L9.59751 2.05381Z" fill="white"/>
<path d="M11.4455 2.05381L11.3441 1.77619L11.2427 2.05381L10.915 2.05282L11.1803 2.22374L11.0788 2.50135L11.3441 2.32945L11.6094 2.50135L11.508 2.22374L11.7744 2.05282L11.4455 2.05381Z" fill="white"/>
<path d="M13.356 2.22374L13.6213 2.05282L13.2936 2.05381L13.1922 1.77619L13.0907 2.05381L12.7619 2.05282L13.0283 2.22374L12.9269 2.50135L13.1922 2.32945L13.4574 2.50135L13.356 2.22374Z" fill="white"/>
<path d="M4.87709 2.44306L4.77566 2.71969H4.44796L4.71324 2.89061L4.61181 3.16724L4.87709 2.99632L5.14237 3.16724L5.04094 2.89061L5.30733 2.71969H4.97852L4.87709 2.44306Z" fill="white"/>
<path d="M6.82656 2.71969L6.72513 2.44306L6.6237 2.71969H6.296L6.56128 2.89061L6.45985 3.16724L6.72513 2.99632L6.99041 3.16724L6.88898 2.89061L7.15426 2.71969H6.82656Z" fill="white"/>
<path d="M8.67349 2.71969L8.57317 2.44306L8.47174 2.71969H8.14293L8.40932 2.89061L8.30678 3.16724L8.57317 2.99632L8.83845 3.16724L8.73702 2.89061L9.0023 2.71969H8.67349Z" fill="white"/>
<path d="M10.5215 2.71969L10.4201 2.44306L10.3198 2.71969H9.99097L10.2562 2.89061L10.1548 3.16724L10.4201 2.99632L10.6854 3.16724L10.5839 2.89061L10.8503 2.71969H10.5215Z" fill="white"/>
<path d="M12.3696 2.71969L12.2681 2.44306L12.1667 2.71969H11.839L12.1043 2.89061L12.0029 3.16724L12.2681 2.99632L12.5334 3.16724L12.432 2.89061L12.6973 2.71969H12.3696Z" fill="white"/>
<path d="M4.0545 3.42213L3.95307 3.14452L3.85275 3.42213L3.52394 3.42114L3.79034 3.59206L3.68779 3.86869L3.95307 3.69777L4.21946 3.86869L4.11692 3.59206L4.38331 3.42114L4.0545 3.42213Z" fill="white"/>
<path d="M5.90254 3.42213L5.80111 3.14452L5.69968 3.42213L5.37198 3.42114L5.63726 3.59206L5.53583 3.86869L5.80111 3.69777L6.06639 3.86869L5.96496 3.59206L6.23024 3.42114L5.90254 3.42213Z" fill="white"/>
<path d="M7.75058 3.42213L7.64915 3.14452L7.54772 3.42213L7.21891 3.42114L7.4853 3.59206L7.38387 3.86869L7.64915 3.69777L7.91443 3.86869L7.813 3.59206L8.07828 3.42114L7.75058 3.42213Z" fill="white"/>
<path d="M9.59751 3.42213L9.49608 3.14452L9.39576 3.42213L9.06695 3.42114L9.33334 3.59206L9.2308 3.86869L9.49608 3.69777L9.76247 3.86869L9.65993 3.59206L9.92632 3.42114L9.59751 3.42213Z" fill="white"/>
<path d="M11.4455 3.42213L11.3441 3.14452L11.2427 3.42213L10.915 3.42114L11.1803 3.59206L11.0788 3.86869L11.3441 3.69777L11.6094 3.86869L11.508 3.59206L11.7744 3.42114L11.4455 3.42213Z" fill="white"/>
<path d="M13.356 3.59206L13.6213 3.42114L13.2936 3.42213L13.1922 3.14452L13.0907 3.42213L12.7619 3.42114L13.0283 3.59206L12.9269 3.86869L13.1922 3.69777L13.4574 3.86869L13.356 3.59206Z" fill="white"/>
<path d="M4.87709 3.83115L4.77566 4.10778H4.44796L4.71324 4.27869L4.61181 4.55532L4.87709 4.3844L5.14237 4.55532L5.04094 4.27869L5.30733 4.10778H4.97852L4.87709 3.83115Z" fill="white"/>
<path d="M6.82656 4.10778L6.72513 3.83115L6.6237 4.10778H6.296L6.56128 4.27869L6.45985 4.55532L6.72513 4.3844L6.99041 4.55532L6.88898 4.27869L7.15426 4.10778H6.82656Z" fill="white"/>
<path d="M8.67349 4.10778L8.57317 3.83115L8.47174 4.10778H8.14293L8.40932 4.27869L8.30678 4.55532L8.57317 4.3844L8.83845 4.55532L8.73702 4.27869L9.0023 4.10778H8.67349Z" fill="white"/>
<path d="M10.5215 4.10778L10.4201 3.83115L10.3198 4.10778H9.99097L10.2562 4.27869L10.1548 4.55532L10.4201 4.3844L10.6854 4.55532L10.5839 4.27869L10.8503 4.10778H10.5215Z" fill="white"/>
<path d="M12.3696 4.10778L12.2681 3.83115L12.1667 4.10778H11.839L12.1043 4.27869L12.0029 4.55532L12.2681 4.3844L12.5334 4.55532L12.432 4.27869L12.6973 4.10778H12.3696Z" fill="white"/>
<path d="M4.0545 4.81021L3.95307 4.5326L3.85275 4.81021L3.52394 4.80923L3.79034 4.98014L3.68779 5.25776L3.95307 5.08585L4.21946 5.25776L4.11692 4.98014L4.38331 4.80923L4.0545 4.81021Z" fill="white"/>
<path d="M5.90254 4.81021L5.80111 4.5326L5.69968 4.81021L5.37198 4.80923L5.63726 4.98014L5.53583 5.25776L5.80111 5.08585L6.06639 5.25776L5.96496 4.98014L6.23024 4.80923L5.90254 4.81021Z" fill="white"/>
<path d="M7.75058 4.81021L7.64915 4.5326L7.54772 4.81021L7.21891 4.80923L7.4853 4.98014L7.38387 5.25776L7.64915 5.08585L7.91443 5.25776L7.813 4.98014L8.07828 4.80923L7.75058 4.81021Z" fill="white"/>
<path d="M9.59751 4.81021L9.49608 4.5326L9.39576 4.81021L9.06695 4.80923L9.33334 4.98014L9.2308 5.25776L9.49608 5.08585L9.76247 5.25776L9.65993 4.98014L9.92632 4.80923L9.59751 4.81021Z" fill="white"/>
<path d="M11.4455 4.81021L11.3441 4.5326L11.2427 4.81021L10.915 4.80923L11.1803 4.98014L11.0788 5.25776L11.3441 5.08585L11.6094 5.25776L11.508 4.98014L11.7744 4.80923L11.4455 4.81021Z" fill="white"/>
<path d="M13.356 4.98014L13.6213 4.80923L13.2936 4.81021L13.1922 4.5326L13.0907 4.81021L12.7619 4.80923L13.0283 4.98014L12.9269 5.25776L13.1922 5.08585L13.4574 5.25776L13.356 4.98014Z" fill="white"/>
<path d="M4.87709 5.19947L4.77566 5.4761H4.44796L4.71324 5.64702L4.61181 5.92364L4.87709 5.75273L5.14237 5.92364L5.04094 5.64702L5.30733 5.4761H4.97852L4.87709 5.19947Z" fill="white"/>
<path d="M6.82656 5.4761L6.72513 5.19947L6.6237 5.4761H6.296L6.56128 5.64702L6.45985 5.92364L6.72513 5.75273L6.99041 5.92364L6.88898 5.64702L7.15426 5.4761H6.82656Z" fill="white"/>
<path d="M8.67349 5.4761L8.57317 5.19947L8.47174 5.4761H8.14293L8.40932 5.64702L8.30678 5.92364L8.57317 5.75273L8.83845 5.92364L8.73702 5.64702L9.0023 5.4761H8.67349Z" fill="white"/>
<path d="M10.5215 5.4761L10.4201 5.19947L10.3198 5.4761H9.99097L10.2562 5.64702L10.1548 5.92364L10.4201 5.75273L10.6854 5.92364L10.5839 5.64702L10.8503 5.4761H10.5215Z" fill="white"/>
<path d="M12.3696 5.4761L12.2681 5.19947L12.1667 5.4761H11.839L12.1043 5.64702L12.0029 5.92364L12.2681 5.75273L12.5334 5.92364L12.432 5.64702L12.6973 5.4761H12.3696Z" fill="white"/>
<path d="M4.0545 6.17854L3.95307 5.90092L3.85275 6.17854L3.52394 6.17755L3.79034 6.34847L3.68779 6.62509L3.95307 6.45418L4.21946 6.62509L4.11692 6.34847L4.38331 6.17755L4.0545 6.17854Z" fill="white"/>
<path d="M5.90254 6.17854L5.80111 5.90092L5.69968 6.17854L5.37198 6.17755L5.63726 6.34847L5.53583 6.62509L5.80111 6.45418L6.06639 6.62509L5.96496 6.34847L6.23024 6.17755L5.90254 6.17854Z" fill="white"/>
<path d="M7.75058 6.17854L7.64915 5.90092L7.54772 6.17854L7.21891 6.17755L7.4853 6.34847L7.38387 6.62509L7.64915 6.45418L7.91443 6.62509L7.813 6.34847L8.07828 6.17755L7.75058 6.17854Z" fill="white"/>
<path d="M9.59751 6.17854L9.49608 5.90092L9.39576 6.17854L9.06695 6.17755L9.33334 6.34847L9.2308 6.62509L9.49608 6.45418L9.76247 6.62509L9.65993 6.34847L9.92632 6.17755L9.59751 6.17854Z" fill="white"/>
<path d="M11.4455 6.17854L11.3441 5.90092L11.2427 6.17854L10.915 6.17755L11.1803 6.34847L11.0788 6.62509L11.3441 6.45418L11.6094 6.62509L11.508 6.34847L11.7744 6.17755L11.4455 6.17854Z" fill="white"/>
<path d="M13.356 6.34847L13.6213 6.17755L13.2936 6.17854L13.1922 5.90092L13.0907 6.17854L12.7619 6.17755L13.0283 6.34847L12.9269 6.62509L13.1922 6.45418L13.4574 6.62509L13.356 6.34847Z" fill="white"/>
</g>
</g>
<defs>
<filter id="filter0_di_296_13446" x="0" y="0" width="28" height="19" filterUnits="userSpaceOnUse" color-interpolation-filters="sRGB">
<feFlood flood-opacity="0" result="BackgroundImageFix"/>
<feColorMatrix in="SourceAlpha" type="matrix" values="0 0 0 0 0 0 0 0 0 0 0 0 0 0 0 0 0 0 127 0" result="hardAlpha"/>
<feOffset dy="3"/>
<feGaussianBlur stdDeviation="1.5"/>
<feComposite in2="hardAlpha" operator="out"/>
<feColorMatrix type="matrix" values="0 0 0 0 0 0 0 0 0 0 0 0 0 0 0 0 0 0 0.25 0"/>
<feBlend mode="normal" in2="BackgroundImageFix" result="effect1_dropShadow_296_13446"/>
<feBlend mode="normal" in="SourceGraphic" in2="effect1_dropShadow_296_13446" result="shape"/>
<feColorMatrix in="SourceAlpha" type="matrix" values="0 0 0 0 0 0 0 0 0 0 0 0 0 0 0 0 0 0 127 0" result="hardAlpha"/>
<feOffset dy="1"/>
<feGaussianBlur stdDeviation="0.75"/>
<feComposite in2="hardAlpha" operator="arithmetic" k2="-1" k3="1"/>
<feColorMatrix type="matrix" values="0 0 0 0 0 0 0 0 0 0 0 0 0 0 0 0 0 0 0.11 0"/>
<feBlend mode="normal" in2="shape" result="effect2_innerShadow_296_13446"/>
</filter>
<clipPath id="clip0_296_13446">
<rect x="3" width="22" height="13" rx="1" fill="white"/>
</clipPath>
</defs>
</svg>
