<svg width="40" height="40" viewBox="0 0 40 40" fill="none" xmlns="http://www.w3.org/2000/svg">
<rect width="40" height="40" rx="5" fill="#FFF42C"/>
<path d="M24.5474 5.96419C24.7274 5.58081 25.2726 5.58081 25.4526 5.96419L27.6678 10.683C27.7385 10.8338 27.8798 10.9395 28.0444 10.9648L33.0389 11.7324C33.441 11.7942 33.6049 12.2848 33.3207 12.5759L29.6764 16.3083C29.5655 16.4219 29.5151 16.5814 29.5406 16.7381L30.3962 21.9836C30.4634 22.3956 30.0261 22.7036 29.6608 22.5016L25.242 20.0581C25.0914 19.9748 24.9086 19.9748 24.758 20.0581L20.3392 22.5016C19.9739 22.7036 19.5366 22.3956 19.6038 21.9836L20.4594 16.7381C20.4849 16.5814 20.4345 16.4219 20.3236 16.3083L16.6793 12.5759C16.3951 12.2848 16.559 11.7942 16.9611 11.7324L21.9556 10.9648C22.1202 10.9395 22.2615 10.8338 22.3322 10.683L24.5474 5.96419Z" fill="black"/>
<path d="M16.1841 20.7314C16.495 20.4438 17.0003 20.6487 17.023 21.0717L17.1596 23.621C17.1685 23.7873 17.2597 23.9383 17.4027 24.0237L19.5462 25.3023C19.8956 25.5107 19.863 26.0269 19.4902 26.1898L17.1091 27.2304C16.9637 27.2939 16.857 27.4228 16.8218 27.5776L16.2377 30.1455C16.1451 30.5526 15.624 30.6736 15.3614 30.3492L13.8101 28.4319C13.7018 28.2982 13.5324 28.2295 13.3616 28.25L10.913 28.5447C10.4986 28.5946 10.2091 28.1447 10.4263 27.7882L11.7961 25.539C11.8787 25.4034 11.892 25.2367 11.8319 25.0897L10.8486 22.6845C10.6946 22.3079 11.0309 21.9149 11.4267 22.0087L13.8552 22.5847C14.0173 22.6231 14.1879 22.5783 14.3101 22.4652L16.1841 20.7314Z" fill="black"/>
</svg>
