<svg width="86" height="30" viewBox="0 0 86 30" fill="none" xmlns="http://www.w3.org/2000/svg">
<g clip-path="url(#clip0_47_24148)">
<path d="M42.8343 9.26703L46.9239 9.01788C47.0131 9.66317 47.1936 10.1544 47.4653 10.4917C47.9091 11.0383 48.5417 11.3116 49.3631 11.3116C49.976 11.3116 50.4489 11.1722 50.7818 10.8933C50.9342 10.7776 51.058 10.6301 51.1442 10.4619C51.2303 10.2936 51.2766 10.1088 51.2796 9.92088C51.277 9.74076 51.2339 9.56336 51.1533 9.40111C51.0727 9.23886 50.9565 9.09569 50.8129 8.98164C50.5018 8.7058 49.7681 8.44456 48.6117 8.19792C46.7264 7.78719 45.3818 7.24056 44.5781 6.55802C44.187 6.24001 43.8747 5.84059 43.6644 5.38939C43.4541 4.93818 43.3511 4.44679 43.3632 3.95169C43.3662 3.25202 43.5827 2.5689 43.9855 1.98863C44.4454 1.33462 45.0951 0.827971 45.8521 0.532954C46.6818 0.179605 47.8225 0.00292969 49.2744 0.00292969C51.0519 0.00292969 52.4073 0.324065 53.3407 0.966336C54.274 1.60861 54.8294 2.6294 55.0067 4.0287L50.9544 4.25823C50.8507 3.65421 50.6247 3.21227 50.2762 2.93241C49.9278 2.65255 49.4507 2.51312 48.8451 2.51413C48.3457 2.51413 47.9693 2.61832 47.7173 2.82369C47.5983 2.91254 47.502 3.02695 47.4362 3.15794C47.3703 3.28893 47.3366 3.43295 47.3377 3.57871C47.3415 3.69182 47.3714 3.80265 47.4253 3.90302C47.4791 4.00339 47.5555 4.09072 47.6488 4.15856C47.8511 4.33675 48.3317 4.50285 49.0909 4.65688C50.97 5.04949 52.3182 5.44713 53.1354 5.84981C53.9525 6.25249 54.5437 6.75131 54.9087 7.34626C55.2813 7.9498 55.4735 8.64203 55.4641 9.34556C55.4685 10.1974 55.2113 11.0312 54.7252 11.7405C54.2192 12.48 53.4994 13.0578 52.6562 13.4015C51.7696 13.779 50.6527 13.9678 49.3055 13.9678C46.94 13.9678 45.3015 13.5259 44.3899 12.642C43.4783 11.7581 42.9598 10.6331 42.8343 9.26703ZM0.975346 13.7413V0.230946H8.14033C9.46879 0.230946 10.4841 0.341179 11.1861 0.561645C11.8777 0.776066 12.4756 1.20871 12.8848 1.79082C13.3302 2.43692 13.557 3.20178 13.5335 3.97887C13.5515 4.657 13.3795 5.32716 13.0357 5.91776C12.7058 6.46526 12.2387 6.9229 11.6777 7.24811C11.2061 7.50063 10.6971 7.68094 10.1688 7.78266C10.5641 7.89567 10.9407 8.06296 11.2873 8.27947C11.5448 8.48727 11.7766 8.72341 11.9779 8.98315C12.2045 9.24129 12.405 9.51991 12.5768 9.81518L14.6582 13.7413H9.80013L7.5041 9.6083C7.21269 9.07375 6.95342 8.72644 6.72631 8.56637C6.41683 8.35818 6.04813 8.24891 5.67163 8.2538H5.28896V13.7413H0.975346ZM5.28896 5.70183H7.10587C7.49039 5.67396 7.87151 5.6123 8.24455 5.5176C8.52332 5.46568 8.77195 5.3143 8.94145 5.09328C9.1207 4.87002 9.21618 4.59411 9.21212 4.31108C9.22382 4.12318 9.19139 3.93515 9.11728 3.7612C9.04318 3.58724 8.92933 3.4319 8.78434 3.3069C8.50018 3.07335 7.96558 2.95657 7.18054 2.95657H5.28896V5.70183ZM0 25.3022L4.08961 25.0545C4.17879 25.6998 4.35924 26.1911 4.63095 26.5283C5.06962 27.075 5.70378 27.3483 6.53342 27.3483C7.14632 27.3483 7.61921 27.2083 7.9521 26.9285C8.10455 26.8127 8.22838 26.6653 8.31452 26.497C8.40065 26.3287 8.4469 26.1439 8.44989 25.956C8.44715 25.7759 8.40397 25.5986 8.32337 25.4364C8.24277 25.2742 8.12669 25.131 7.98321 25.0168C7.6721 24.7409 6.93839 24.4802 5.78207 24.2346C3.89672 23.8218 2.55218 23.2752 1.74847 22.5947C1.35741 22.2763 1.04517 21.8766 0.834863 21.4251C0.624557 20.9737 0.521581 20.4821 0.533562 19.9868C0.537006 19.2872 0.753493 18.6042 1.15579 18.0238C1.61574 17.3698 2.26545 16.8631 3.02248 16.5681C3.85212 16.2147 4.99288 16.0381 6.44475 16.0381C8.22225 16.0381 9.57768 16.3592 10.511 17.0015C11.4444 17.6437 11.9997 18.6645 12.177 20.0638L8.13255 20.2949C8.02884 19.6908 7.80277 19.2484 7.45432 18.9675C7.10587 18.6867 6.62934 18.5488 6.02474 18.5538C5.52592 18.5538 5.14999 18.6545 4.89695 18.8558C4.77792 18.9447 4.68171 19.0591 4.61585 19.1901C4.55 19.321 4.5163 19.4651 4.51739 19.6108C4.52094 19.7242 4.55075 19.8353 4.60461 19.936C4.65847 20.0366 4.735 20.1242 4.82851 20.1922C5.03073 20.3704 5.5114 20.536 6.27053 20.689C8.14966 21.0816 9.49783 21.4792 10.315 21.8819C11.1322 22.2846 11.7233 22.7834 12.0884 23.3784C12.4607 23.982 12.653 24.6742 12.6437 25.3777C12.6484 26.2296 12.3911 27.0634 11.9048 27.7726C11.3989 28.5121 10.6791 29.09 9.83591 29.4336C8.94923 29.8111 7.83232 29.9999 6.4852 29.9999C4.11968 29.9999 2.48114 29.558 1.56958 28.6741C0.658009 27.7902 0.134817 26.6662 0 25.3022ZM25.3559 24.2436L29.1235 25.349C28.9151 26.2768 28.5075 27.1515 27.9273 27.916C27.3985 28.5916 26.703 29.127 25.905 29.4729C25.0982 29.8222 24.0715 29.9969 22.825 29.9969C21.3129 29.9969 20.0778 29.784 19.1196 29.3581C18.1613 28.9323 17.3317 28.1818 16.6307 27.1067C15.9338 26.0325 15.5858 24.6579 15.5869 22.9827C15.5869 20.7499 16.1987 19.033 17.4224 17.832C18.6462 16.631 20.378 16.031 22.6181 16.032C24.3717 16.032 25.7494 16.3763 26.7512 17.0649C27.753 17.7535 28.4976 18.8105 28.985 20.236L25.1894 21.0559C25.1003 20.7346 24.9596 20.4288 24.7725 20.1499C24.5427 19.8401 24.2404 19.5875 23.8905 19.413C23.5279 19.2376 23.1274 19.1491 22.7223 19.1548C21.7485 19.1548 21.0023 19.5353 20.4838 20.2964C20.0897 20.8611 19.8932 21.7475 19.8943 22.9556C19.8943 24.4515 20.1286 25.4773 20.5974 26.033C21.0661 26.5887 21.7241 26.8661 22.5714 26.8651C23.3927 26.8651 24.015 26.6411 24.4381 26.1931C24.8612 25.7451 25.1671 25.0953 25.3559 24.2436ZM32.4353 16.2661H36.7334V20.9895H41.4312V16.2661H45.7479V29.7704H41.4312V24.3116H36.7334V29.7749H32.4353V16.2661ZM48.4235 23.0265C48.4235 20.8239 49.0561 19.1075 50.3213 17.8773C51.5865 16.6471 53.3495 16.033 55.6103 16.035C57.925 16.035 59.7087 16.6391 60.9615 17.8471C62.2142 19.0551 62.8421 20.7449 62.8453 22.9163C62.8453 24.4958 62.5715 25.7904 62.0239 26.8001C61.4911 27.7965 60.6654 28.6169 59.6517 29.1573C58.6146 29.719 57.3256 29.9999 55.7845 29.9999C54.2165 29.9999 52.9202 29.7573 51.8956 29.2721C50.8429 28.7657 49.9718 27.9632 49.3958 26.9693C48.7466 25.9203 48.4225 24.606 48.4235 23.0265ZM52.7216 23.0462C52.7216 24.4102 52.9808 25.3897 53.4994 25.9847C54.0179 26.5797 54.7283 26.8771 55.6305 26.8771C56.5545 26.8771 57.2696 26.5857 57.7756 26.0028C58.2817 25.4199 58.5348 24.373 58.5348 22.8619C58.5348 21.5905 58.2703 20.6613 57.7414 20.0744C57.2125 19.4875 56.4959 19.1946 55.5916 19.1956C55.1984 19.1818 54.8071 19.2546 54.447 19.4083C54.0868 19.5621 53.7671 19.7929 53.5118 20.0835C52.986 20.6875 52.7226 21.675 52.7216 23.0462Z" fill="black"/>
<path d="M42.8343 9.26703L46.9239 9.01788C47.0131 9.66317 47.1936 10.1544 47.4653 10.4917C47.9091 11.0383 48.5417 11.3116 49.3631 11.3116C49.976 11.3116 50.4489 11.1722 50.7818 10.8933C50.9342 10.7776 51.058 10.6301 51.1442 10.4619C51.2303 10.2936 51.2766 10.1088 51.2796 9.92088C51.277 9.74076 51.2339 9.56336 51.1533 9.40111C51.0727 9.23886 50.9565 9.09569 50.8129 8.98164C50.5018 8.7058 49.7681 8.44456 48.6117 8.19792C46.7264 7.78719 45.3818 7.24056 44.5781 6.55802C44.187 6.24001 43.8747 5.84059 43.6644 5.38939C43.4541 4.93818 43.3511 4.44679 43.3632 3.95169C43.3662 3.25202 43.5827 2.5689 43.9855 1.98863C44.4454 1.33462 45.0951 0.827971 45.8521 0.532954C46.6818 0.179605 47.8225 0.00292969 49.2744 0.00292969C51.0519 0.00292969 52.4073 0.324065 53.3407 0.966336C54.274 1.60861 54.8294 2.6294 55.0067 4.0287L50.9544 4.25823C50.8507 3.65421 50.6247 3.21227 50.2762 2.93241C49.9278 2.65255 49.4507 2.51312 48.8451 2.51413C48.3457 2.51413 47.9693 2.61832 47.7173 2.82369C47.5983 2.91254 47.502 3.02695 47.4362 3.15794C47.3703 3.28893 47.3366 3.43295 47.3377 3.57871C47.3415 3.69182 47.3714 3.80265 47.4253 3.90302C47.4791 4.00339 47.5555 4.09072 47.6488 4.15856C47.8511 4.33675 48.3317 4.50285 49.0909 4.65688C50.97 5.04949 52.3182 5.44713 53.1354 5.84981C53.9525 6.25249 54.5437 6.75131 54.9087 7.34626C55.2813 7.9498 55.4735 8.64203 55.4641 9.34556C55.4685 10.1974 55.2113 11.0312 54.7252 11.7405C54.2192 12.48 53.4994 13.0578 52.6562 13.4015C51.7696 13.779 50.6527 13.9678 49.3055 13.9678C46.94 13.9678 45.3015 13.5259 44.3899 12.642C43.4783 11.7581 42.9598 10.6331 42.8343 9.26703ZM0.975346 13.7413V0.230946H8.14033C9.46879 0.230946 10.4841 0.341179 11.1861 0.561645C11.8777 0.776066 12.4756 1.20871 12.8848 1.79082C13.3302 2.43692 13.557 3.20178 13.5335 3.97887C13.5515 4.657 13.3795 5.32716 13.0357 5.91776C12.7058 6.46526 12.2387 6.9229 11.6777 7.24811C11.2061 7.50063 10.6971 7.68094 10.1688 7.78266C10.5641 7.89567 10.9407 8.06296 11.2873 8.27947C11.5448 8.48727 11.7766 8.72341 11.9779 8.98315C12.2045 9.24129 12.405 9.51991 12.5768 9.81518L14.6582 13.7413H9.80013L7.5041 9.6083C7.21269 9.07375 6.95342 8.72644 6.72631 8.56637C6.41683 8.35818 6.04813 8.24891 5.67163 8.2538H5.28896V13.7413H0.975346ZM5.28896 5.70183H7.10587C7.49039 5.67396 7.87151 5.6123 8.24455 5.5176C8.52332 5.46568 8.77195 5.3143 8.94145 5.09328C9.1207 4.87002 9.21618 4.59411 9.21212 4.31108C9.22382 4.12318 9.19139 3.93515 9.11728 3.7612C9.04318 3.58724 8.92933 3.4319 8.78434 3.3069C8.50018 3.07335 7.96558 2.95657 7.18054 2.95657H5.28896V5.70183ZM0 25.3022L4.08961 25.0545C4.17879 25.6998 4.35924 26.1911 4.63095 26.5283C5.06962 27.075 5.70378 27.3483 6.53342 27.3483C7.14632 27.3483 7.61921 27.2083 7.9521 26.9285C8.10455 26.8127 8.22838 26.6653 8.31452 26.497C8.40065 26.3287 8.4469 26.1439 8.44989 25.956C8.44715 25.7759 8.40397 25.5986 8.32337 25.4364C8.24277 25.2742 8.12669 25.131 7.98321 25.0168C7.6721 24.7409 6.93839 24.4802 5.78207 24.2346C3.89672 23.8218 2.55218 23.2752 1.74847 22.5947C1.35741 22.2763 1.04517 21.8766 0.834863 21.4251C0.624557 20.9737 0.521581 20.4821 0.533562 19.9868C0.537006 19.2872 0.753493 18.6042 1.15579 18.0238C1.61574 17.3698 2.26545 16.8631 3.02248 16.5681C3.85212 16.2147 4.99288 16.0381 6.44475 16.0381C8.22225 16.0381 9.57768 16.3592 10.511 17.0015C11.4444 17.6437 11.9997 18.6645 12.177 20.0638L8.13255 20.2949C8.02884 19.6908 7.80277 19.2484 7.45432 18.9675C7.10587 18.6867 6.62934 18.5488 6.02474 18.5538C5.52592 18.5538 5.14999 18.6545 4.89695 18.8558C4.77792 18.9447 4.68171 19.0591 4.61585 19.1901C4.55 19.321 4.5163 19.4651 4.51739 19.6108C4.52094 19.7242 4.55075 19.8353 4.60461 19.936C4.65847 20.0366 4.735 20.1242 4.82851 20.1922C5.03073 20.3704 5.5114 20.536 6.27053 20.689C8.14966 21.0816 9.49783 21.4792 10.315 21.8819C11.1322 22.2846 11.7233 22.7834 12.0884 23.3784C12.4607 23.982 12.653 24.6742 12.6437 25.3777C12.6484 26.2296 12.3911 27.0634 11.9048 27.7726C11.3989 28.5121 10.6791 29.09 9.83591 29.4336C8.94923 29.8111 7.83232 29.9999 6.4852 29.9999C4.11968 29.9999 2.48114 29.558 1.56958 28.6741C0.658009 27.7902 0.134817 26.6662 0 25.3022ZM25.3559 24.2436L29.1235 25.349C28.9151 26.2768 28.5075 27.1515 27.9273 27.916C27.3985 28.5916 26.703 29.127 25.905 29.4729C25.0982 29.8222 24.0715 29.9969 22.825 29.9969C21.3129 29.9969 20.0778 29.784 19.1196 29.3581C18.1613 28.9323 17.3317 28.1818 16.6307 27.1067C15.9338 26.0325 15.5858 24.6579 15.5869 22.9827C15.5869 20.7499 16.1987 19.033 17.4224 17.832C18.6462 16.631 20.378 16.031 22.6181 16.032C24.3717 16.032 25.7494 16.3763 26.7512 17.0649C27.753 17.7535 28.4976 18.8105 28.985 20.236L25.1894 21.0559C25.1003 20.7346 24.9596 20.4288 24.7725 20.1499C24.5427 19.8401 24.2404 19.5875 23.8905 19.413C23.5279 19.2376 23.1274 19.1491 22.7223 19.1548C21.7485 19.1548 21.0023 19.5353 20.4838 20.2964C20.0897 20.8611 19.8932 21.7475 19.8943 22.9556C19.8943 24.4515 20.1286 25.4773 20.5974 26.033C21.0661 26.5887 21.7241 26.8661 22.5714 26.8651C23.3927 26.8651 24.015 26.6411 24.4381 26.1931C24.8612 25.7451 25.1671 25.0953 25.3559 24.2436ZM32.4353 16.2661H36.7334V20.9895H41.4312V16.2661H45.7479V29.7704H41.4312V24.3116H36.7334V29.7749H32.4353V16.2661ZM48.4235 23.0265C48.4235 20.8239 49.0561 19.1075 50.3213 17.8773C51.5865 16.6471 53.3495 16.033 55.6103 16.035C57.925 16.035 59.7087 16.6391 60.9615 17.8471C62.2142 19.0551 62.8421 20.7449 62.8453 22.9163C62.8453 24.4958 62.5715 25.7904 62.0239 26.8001C61.4911 27.7965 60.6654 28.6169 59.6517 29.1573C58.6146 29.719 57.3256 29.9999 55.7845 29.9999C54.2165 29.9999 52.9202 29.7573 51.8956 29.2721C50.8429 28.7657 49.9718 27.9632 49.3958 26.9693C48.7466 25.9203 48.4225 24.606 48.4235 23.0265ZM52.7216 23.0462C52.7216 24.4102 52.9808 25.3897 53.4994 25.9847C54.0179 26.5797 54.7283 26.8771 55.6305 26.8771C56.5545 26.8771 57.2696 26.5857 57.7756 26.0028C58.2817 25.4199 58.5348 24.373 58.5348 22.8619C58.5348 21.5905 58.2703 20.6613 57.7414 20.0744C57.2125 19.4875 56.4959 19.1946 55.5916 19.1956C55.1984 19.1818 54.8071 19.2546 54.447 19.4083C54.0868 19.5621 53.7671 19.7929 53.5118 20.0835C52.986 20.6875 52.7226 21.675 52.7216 23.0462Z" fill="black"/>
<path d="M61.0225 23.0267C61.0225 20.824 61.6551 19.1076 62.9203 17.8774C64.1855 16.6472 65.9485 16.0331 68.2092 16.0352C70.526 16.0352 72.3102 16.6392 73.562 17.8472C74.8137 19.0552 75.4395 20.7455 75.4395 22.9179C75.4395 24.4974 75.1663 25.792 74.6197 26.8018C74.0864 27.7979 73.2609 28.6181 72.2475 29.1589C71.2104 29.7207 69.9214 30.0015 68.3803 30.0015C66.8113 30.0015 65.515 29.7589 64.4914 29.2737C63.4386 28.7669 62.5671 27.9646 61.99 26.9709C61.345 25.9209 61.0225 24.6062 61.0225 23.0267ZM65.3221 23.0463C65.3221 24.4104 65.5813 25.3899 66.0999 25.9848C66.6184 26.5798 67.3298 26.8778 68.2341 26.8788C69.1581 26.8788 69.8732 26.5873 70.3792 26.0045C70.8853 25.4216 71.1384 24.3746 71.1384 22.8636C71.1384 21.5921 70.8744 20.6629 70.3466 20.076C69.8187 19.4891 69.1021 19.1962 68.1968 19.1972C67.8029 19.1825 67.4108 19.2546 67.0497 19.4081C66.6887 19.5616 66.3682 19.7926 66.1123 20.0836C65.5844 20.6876 65.321 21.6752 65.3221 23.0463Z" fill="black"/>
<path d="M61.0225 23.0267C61.0225 20.824 61.6551 19.1076 62.9203 17.8774C64.1855 16.6472 65.9485 16.0331 68.2092 16.0352C70.526 16.0352 72.3102 16.6392 73.562 17.8472C74.8137 19.0552 75.4395 20.7455 75.4395 22.9179C75.4395 24.4974 75.1663 25.792 74.6197 26.8018C74.0864 27.7979 73.2609 28.6181 72.2475 29.1589C71.2104 29.7207 69.9214 30.0015 68.3803 30.0015C66.8113 30.0015 65.515 29.7589 64.4914 29.2737C63.4386 28.7669 62.5671 27.9646 61.99 26.9709C61.345 25.9209 61.0225 24.6062 61.0225 23.0267ZM65.3221 23.0463C65.3221 24.4104 65.5813 25.3899 66.0999 25.9848C66.6184 26.5798 67.3298 26.8778 68.2341 26.8788C69.1581 26.8788 69.8732 26.5873 70.3792 26.0045C70.8853 25.4216 71.1384 24.3746 71.1384 22.8636C71.1384 21.5921 70.8744 20.6629 70.3466 20.076C69.8187 19.4891 69.1021 19.1962 68.1968 19.1972C67.8029 19.1825 67.4108 19.2546 67.0497 19.4081C66.6887 19.5616 66.3682 19.7926 66.1123 20.0836C65.5844 20.6876 65.321 21.6752 65.3221 23.0463Z" fill="black"/>
<path d="M74.9912 16.2661H79.2908V26.4453H86V29.7674H74.9912V16.2661Z" fill="black"/>
<path d="M74.9912 16.2661H79.2908V26.4453H86V29.7674H74.9912V16.2661Z" fill="black"/>
</g>
<defs>
<clipPath id="clip0_47_24148">
<rect width="86" height="30" fill="white"/>
</clipPath>
</defs>
</svg>
