<svg width="324" height="324" viewBox="0 0 324 324" fill="none" xmlns="http://www.w3.org/2000/svg">
<g clip-path="url(#clip0_8_355)">
<path d="M297.893 110.486L307.591 120.195L120.218 307.562L110.52 297.853L297.893 110.486Z" fill="#2D2D2D"/>
<path d="M305.484 138.617L49.5033 70.0275L53.0588 56.758L309.039 125.348L305.484 138.617Z" fill="#2D2D2D"/>
<path d="M194.19 21.5616L302.415 129.789L292.706 139.486L184.481 31.259L194.19 21.5616ZM31.3363 184.438L139.574 292.657L129.865 302.355L21.64 194.128L31.3363 184.438Z" fill="#2D2D2D"/>
<path d="M263.917 246.802L267.477 260.055L119.517 299.66L115.957 286.407L263.917 246.802Z" fill="#2D2D2D"/>
<path d="M70.0378 49.4326L138.639 305.41L125.386 308.97L56.7848 52.9926L70.0378 49.4326ZM260.069 267.507L246.799 263.951L286.413 116.109L299.683 119.665L260.069 267.507ZM37.5751 207.89L24.3056 204.334L63.9198 56.4921L77.1893 60.0477L37.5751 207.89Z" fill="#2D2D2D"/>
<path d="M194.937 27.7876L198.038 39.3746L69.4489 73.8278L66.3481 62.2408L194.937 27.7876Z" fill="#2D2D2D"/>
<path d="M47.4988 47.463C52.9213 42.0544 60.2663 39.0154 67.9251 39.0116C75.5838 39.0079 82.9318 42.0397 88.3595 47.443C93.7681 52.8655 96.8071 60.2105 96.8109 67.8692C96.8146 75.528 93.7828 82.876 88.3795 88.3037C82.957 93.7123 75.612 96.7513 67.9533 96.7551C60.2946 96.7588 52.9465 93.727 47.5188 88.3236C36.1697 76.9752 36.1728 58.7286 47.5093 47.4658M235.695 235.707C241.117 230.298 248.462 227.259 256.121 227.255C263.78 227.252 271.128 230.283 276.555 235.687C281.967 241.11 285.007 248.457 285.011 256.119C285.014 263.78 281.979 271.13 276.573 276.558C271.15 281.966 263.805 285.005 256.146 285.009C248.488 285.013 241.14 281.981 235.712 276.578C230.303 271.155 227.264 263.81 227.261 256.152C227.257 248.493 230.291 241.134 235.695 235.707ZM318.418 120.055C320.383 127.458 319.335 135.337 315.502 141.968C311.67 148.599 305.365 153.44 297.97 155.432C290.568 157.397 282.689 156.349 276.058 152.516C269.427 148.684 264.586 142.38 262.594 134.984C260.628 127.582 261.677 119.703 265.509 113.072C269.342 106.441 275.646 101.6 283.041 99.6079C298.522 95.5378 314.339 104.651 318.418 120.055ZM61.3163 188.971C63.2818 196.373 62.2335 204.253 58.4009 210.883C54.5683 217.514 48.2639 222.356 40.8687 224.347C33.4665 226.313 25.587 225.265 18.9562 221.432C12.3255 217.599 7.48396 211.295 5.49232 203.9C3.52676 196.498 4.57511 188.618 8.40771 181.987C12.2403 175.357 18.5447 170.515 25.9399 168.523C33.3421 166.558 41.2216 167.606 47.8524 171.439C54.4832 175.271 59.3246 181.576 61.3163 188.971ZM203.923 5.51926C209.44 6.99769 214.395 10.0792 218.162 14.3741C221.928 18.6689 224.336 23.9842 225.081 29.6476C225.826 35.311 224.875 41.0682 222.347 46.191C219.82 51.3138 215.831 55.572 210.883 58.4272C205.936 61.2824 200.253 62.6063 194.553 62.2313C188.853 61.8564 183.392 59.7996 178.861 56.3209C174.33 52.8423 170.933 48.0981 169.099 42.6884C167.264 37.2787 167.075 31.4465 168.556 25.9295C170.556 18.5433 175.399 12.2496 182.027 8.42475C188.654 4.59993 196.527 3.55528 203.923 5.51926ZM135.014 262.689C138.681 263.665 142.118 265.356 145.13 267.663C148.142 269.971 150.668 272.85 152.565 276.135C154.463 279.421 155.692 283.049 156.185 286.811C156.677 290.573 156.422 294.395 155.435 298.059C153.453 305.455 148.614 311.762 141.982 315.591C135.35 319.42 127.469 320.457 120.072 318.475C112.675 316.493 106.369 311.654 102.54 305.022C98.7107 298.391 97.6731 290.509 99.6551 283.112C100.632 279.448 102.323 276.013 104.63 273.003C106.937 269.993 109.815 267.468 113.099 265.572C116.383 263.676 120.009 262.446 123.769 261.953C127.529 261.46 131.352 261.703 135.014 262.689Z" fill="#2D2D2D"/>
</g>
<defs>
<clipPath id="clip0_8_355">
<rect width="324" height="324" fill="white" transform="translate(324 324) rotate(180)"/>
</clipPath>
</defs>
</svg>
